<?xml version="1.0" encoding="UTF-8" standalone="no"?>
<!-- Created with Inkscape (http://www.inkscape.org/) -->

<svg
   width="29.196369mm"
   height="47.492561mm"
   viewBox="0 0 29.196369 47.492561"
   version="1.1"
   id="svg5"
   xmlSpace="preserve"
   xmlns="http://www.w3.org/2000/svg"
   xmlnsSvg="http://www.w3.org/2000/svg"><defs
     id="defs2" /><g
     id="layer1"
     transform="translate(-75.803631,-108.13058)"><g
       id="g10249"
       transform="matrix(0.60201768,0,0,0.60583066,64.333565,59.177255)"><path
         id="path312-2-0-0"
         style="fill:#1735ce;fill-opacity:1;stroke-width:0.246"
         d="m 42.912974,130.81797 a 5.1961559,5.1961559 0 0 0 -2.20968,0.68161 l -6.062163,3.50005 H 19.052936 v 10.00042 a 1.7320523,1.7320523 0 0 0 0.86558,1.49965 L 40.703294,158.5 a 5.1961559,5.1961559 0 0 0 5.19606,0 l 20.78478,-12.0003 a 1.7320514,1.7320514 0 0 0 0.8661,-1.49965 v -10.00042 h -15.58871 l -6.06217,-3.50005 a 5.1961559,5.1961559 0 0 0 -2.98638,-0.68161 z" /><path
         style="fill:#484bea;fill-opacity:1;stroke-width:0.246"
         d="m 19.918736,133.4998 20.7846,-12 a 5.1961559,5.1961559 179.99999 0 1 5.196156,0 l 20.784614,12 a 1.7320514,1.7320514 90 0 1 0,3 l -20.784614,12 a 5.1961559,5.1961559 6.6845067e-6 0 1 -5.196156,0 l -20.7846,-12 a 1.7320523,1.7320523 90 0 1 0,-3 z"
         id="path312-8-0" /><path
         id="path312-8-0-5"
         style="fill:#000000;fill-opacity:0.3;stroke-width:0.246"
         d="m 42.913143,120.81847 a 5.1961559,5.1961559 0 0 0 -2.210201,0.68161 l -19.052067,10.99984 19.052584,10.99985 a 5.1961562,5.1961562 0 0 0 5.196065,0 L 64.951591,132.49992 45.899524,121.50008 a 5.1961559,5.1961559 0 0 0 -2.986381,-0.68161 z" /><path
         id="path312-2-0"
         style="fill:#1773ce;fill-opacity:1;stroke-width:0.246"
         d="m 42.912974,110.81816 a 5.1961557,5.1961557 0 0 0 -2.20968,0.68161 l -6.062163,3.50005 H 19.052936 v 9.9999 a 1.7320524,1.7320524 0 0 0 0.86558,1.50017 l 20.784778,11.99978 a 5.1961557,5.1961557 0 0 0 5.19606,0 l 20.78478,-11.99978 a 1.7320514,1.7320514 0 0 0 0.8661,-1.50017 v -9.9999 h -15.58871 l -6.06217,-3.50005 a 5.1961557,5.1961557 0 0 0 -2.98638,-0.68161 z" /><path
         style="fill:#4899ea;fill-opacity:1;stroke-width:0.246"
         d="m 19.918738,113.4998 20.784598,-12 a 5.1961557,5.1961557 179.99999 0 1 5.196156,0 l 20.784614,12 a 1.7320514,1.7320514 90 0 1 0,3 l -20.784614,12 a 5.1961557,5.1961557 7.6394374e-6 0 1 -5.196156,0 l -20.784598,-12 a 1.7320524,1.7320524 90 0 1 0,-3 z"
         id="path312-8" /><path
         id="path312-8-0-5-5"
         style="fill:#000000;fill-opacity:0.3;stroke-width:0.246"
         d="m 42.913457,100.81855 a 5.1961559,5.1961559 0 0 0 -2.210201,0.68161 L 21.651189,112.5 40.703773,123.49985 a 5.1961562,5.1961562 0 0 0 5.196065,0 L 64.951905,112.5 45.899838,101.50016 a 5.1961559,5.1961559 0 0 0 -2.986381,-0.68161 z" /><path
         id="path312-2"
         style="fill:#17afce;fill-opacity:1;stroke-width:0.246"
         d="m 42.912974,90.818347 a 5.1961565,5.1961565 0 0 0 -2.20968,0.681612 L 34.641131,95 H 19.052936 v 9.99991 a 1.7320521,1.7320521 0 0 0 0.86558,1.49965 l 20.784778,12.0003 a 5.1961562,5.1961562 0 0 0 5.19606,0 l 20.78478,-12.0003 a 1.7320513,1.7320513 0 0 0 0.8661,-1.49965 V 95 h -15.58871 l -6.06217,-3.500041 a 5.1961565,5.1961565 0 0 0 -2.98638,-0.681612 z" /><path
         style="fill:#48cfea;fill-opacity:1;stroke-width:0.246"
         d="M 19.918733,93.499799 40.703336,81.4998 a 5.1961558,5.1961558 179.99999 0 1 5.196156,0 l 20.784614,11.999999 a 1.7320514,1.7320514 90.000001 0 1 0,3.000002 L 45.899492,108.4998 a 5.1961562,5.1961562 5.2521123e-6 0 1 -5.196156,0 L 19.918733,96.499801 a 1.7320522,1.7320522 89.999999 0 1 0,-3.000002 z"
         id="path312" /></g></g></svg>
